<svg xmlns="http://www.w3.org/2000/svg" width="165" height="56" viewBox="0 0 165 56"><defs><style>.a{fill:none;}.b{fill:#fff;}</style></defs><g transform="translate(-94.149 -57.029)"><rect class="a" width="165" height="56" transform="translate(94.149 57.029)"/><g transform="translate(0 3.207)"><path class="b" d="M196.445,67.089l-16.483-9.517a5.646,5.646,0,0,0-5.624,0l-16.483,9.517a5.64,5.64,0,0,0-2.811,4.871V90.992a5.641,5.641,0,0,0,2.811,4.871l16.483,9.516a5.639,5.639,0,0,0,5.624,0l16.483-9.517a5.641,5.641,0,0,0,2.812-4.871V71.96A5.639,5.639,0,0,0,196.445,67.089Zm-17.553-7.663,16.483,9.516a3.5,3.5,0,0,1,1.742,3.018V90.992a3.494,3.494,0,0,1-1.742,3.018l-16.483,9.516a3.493,3.493,0,0,1-3.484,0L158.924,94.01a3.494,3.494,0,0,1-1.742-3.018V71.96a3.493,3.493,0,0,1,1.742-3.017l16.483-9.517A3.554,3.554,0,0,1,178.891,59.426Z" transform="translate(-0.893 0)"/><g transform="translate(181.178 73.408)"><path class="b" d="M202.012,100.783l-.1-.167h0Z" transform="translate(-201.916 -92.784)"/><path class="b" d="M206.508,93.725l4.194-7.156h-4.416l-2.021,3.339Z" transform="translate(-202.956 -86.569)"/><path class="b" d="M206.508,102.605l4.194,7.156h-4.416l-2.021-3.339Z" transform="translate(-202.956 -93.664)"/></g><g transform="translate(166.904 70.104)"><path class="b" d="M176.316,103.349h3.878L186.865,92l-6.671-11.354h-3.878L182.87,92Z" transform="translate(-176.316 -80.642)"/></g><g transform="translate(172.88 70.104)"><path class="b" d="M187.033,103.349h3.878L197.582,92,190.91,80.642h-3.878L193.586,92Z" transform="translate(-187.033 -80.642)"/></g></g></g></svg>