<svg xmlns="http://www.w3.org/2000/svg" xmlns:xlink="http://www.w3.org/1999/xlink" width="208" height="208" viewBox="0 0 208 208"><defs><style>.a{fill:#f9f9f9;}.b{fill:#e4ca7f;}.c{fill:#5c4f44;}.d{filter:url(#a);}</style><filter id="a" x="0" y="0" width="208" height="208" filterUnits="userSpaceOnUse"><feOffset dy="3" input="SourceAlpha"/><feGaussianBlur stdDeviation="3" result="b"/><feFlood flood-opacity="0.161"/><feComposite operator="in" in2="b"/><feComposite in="SourceGraphic"/></filter></defs><g transform="translate(-44 6)"><g class="d" transform="matrix(1, 0, 0, 1, 44, -6)"><circle class="a" cx="95" cy="95" r="95" transform="translate(9 6)"/></g><g transform="translate(83 35.849)"><g transform="translate(19.143)"><path class="b" d="M8285.348,1657.563a1.313,1.313,0,0,0-.008-.138l0-.04c-.007-.04-.012-.08-.019-.12l-.009-.037c-.009-.035-.017-.07-.026-.1,0-.017-.011-.033-.015-.05s-.021-.059-.033-.088c-.006-.013-.01-.026-.016-.038-.016-.038-.035-.075-.054-.112-.007-.015-.016-.029-.023-.043s-.031-.052-.047-.078-.017-.025-.025-.037a.036.036,0,0,0-.009-.013l-9.836-13.988a1.563,1.563,0,0,0-1.279-.665h-.006l-76.053.24a1.569,1.569,0,0,0-1.269.655l-9.835,13.748-.014.021c-.009.012-.016.024-.025.037s-.034.054-.049.081l-.021.038c-.02.037-.038.075-.054.113-.006.014-.011.029-.017.043s-.022.056-.032.084-.011.032-.016.049q-.018.061-.032.123c0,.01,0,.021,0,.032-.006.036-.013.072-.016.109a.224.224,0,0,0,0,.04c0,.046-.007.092-.007.139v64.734l.259-.26,2.873,2.432V1659.13h45.58l6.106,10.579-15.625,27.071h9.245l15.906-27.071-6.215-10.579h4.83l6.106,10.579-15.627,27.071h9.246l15.907-27.071-6.217-10.579h4.357l4.966,8.45,4.952-8.45h9.073v65.907l-23.383.234-4.476,3.176,29.44-.3a1.566,1.566,0,0,0,1.55-1.566v-69.022ZM8191.1,1656l7.6-10.619,28.515-.09L8233.4,1656Zm51.679,0-6.31-10.738,4.964-.016,6.209,10.754Zm7.911-10.783,22.441-.071,3.778,5.372h-9.252l-3.315,5.482h-7.316ZM8274.978,1656l2.632-4.49,3.157,4.49Z" transform="translate(-8186.492 -1642.011)"/><path class="b" d="M8927.108,1944.844h6.265l-10-17.063-5.346,9.1,4.818,7.962h4.265Z" transform="translate(-8841.674 -1897.955)"/></g><path class="c" d="M8098.352,2319.395a6.5,6.5,0,0,0-8.535-.926l-15.189,10.708h-1.153a11.751,11.751,0,0,0-11.71-10.953h-16.481a20.8,20.8,0,0,0-15.292,6.725l-3.724,4.061-3.281-2.779a.783.783,0,0,0-1.062.046l-18.619,18.757a.781.781,0,0,0-.228.552v8.081a.783.783,0,0,0,.783.783H8038.8a.784.784,0,0,0,.582-.259l6.651-7.389a.786.786,0,0,0,.2-.577.778.778,0,0,0-.276-.544l-2.756-2.333H8073.6a11.217,11.217,0,0,0,6.534-2.083l17.177-12.191a6.492,6.492,0,0,0,1.036-9.677Zm-59.9,33.489h-33.8v-6.975l17.882-18.015,12.163,10.3,5.866,4.968.016.012,3.756,3.181Zm57.961-25.089-17.177,12.192a9.663,9.663,0,0,1-5.627,1.794h-32.257l-5.814-4.923-8.071-6.836,3.682-4.014a19.227,19.227,0,0,1,14.138-6.218h16.481a10.182,10.182,0,0,1,10.14,9.4l-25.359.343a.783.783,0,0,0,.01,1.565h.012l26.157-.354h2.152a.785.785,0,0,0,.452-.143l15.391-10.852a4.928,4.928,0,0,1,5.691,8.046Z" transform="translate(-8003.078 -2246.806)"/></g></g></svg>