<svg xmlns="http://www.w3.org/2000/svg" xmlns:xlink="http://www.w3.org/1999/xlink" width="208" height="208" viewBox="0 0 208 208"><defs><style>.a{fill:none;}.b{fill:#f9f9f9;}.c{fill:#15110e;opacity:0.88;}.d{fill:#e4ca7f;}.e{clip-path:url(#c);}.f{filter:url(#a);}</style><filter id="a" x="0" y="0" width="208" height="208" filterUnits="userSpaceOnUse"><feOffset dy="3" input="SourceAlpha"/><feGaussianBlur stdDeviation="3" result="b"/><feFlood flood-opacity="0.161"/><feComposite operator="in" in2="b"/><feComposite in="SourceGraphic"/></filter><clipPath id="c"><path class="a" d="M0,0H90.9a0,0,0,0,1,0,0V21.208a24.84,24.84,0,0,1-24.84,24.84H24.84A24.84,24.84,0,0,1,0,21.208V0A0,0,0,0,1,0,0Z"/></clipPath></defs><g transform="translate(-30 13)"><g class="f" transform="matrix(1, 0, 0, 1, 30, -13)"><circle class="b" cx="95" cy="95" r="95" transform="translate(9 6)"/></g><g transform="translate(67 15.26)"><g transform="translate(26.087 42.019)"><path class="c" d="M6909.971,2169.3l-.025,6.081h1.67l.032-7.662Z" transform="translate(-6909.946 -2134.728)"/><path class="c" d="M7091.433,1895.67a1.667,1.667,0,0,0-.794-2.135c-2.229-1.113-8.83-2.237-18.556-2.237-3.638,0-7.108.161-10.166.468l.093-3.042h.665a.836.836,0,0,0,.827-.956l-.843-5.78v-.015a.235.235,0,0,0-.006-.026c0-.016,0-.031-.009-.047a.289.289,0,0,0-.01-.034c0-.014-.007-.027-.011-.041s-.019-.049-.028-.072a.083.083,0,0,1-.008-.016.6.6,0,0,0-.03-.056.175.175,0,0,0-.011-.02l-.031-.049-.006-.008-1.94-2.688-.743-4.223a1.678,1.678,0,0,0,1.727-1.139,1.407,1.407,0,0,0-.349-1.393c-.674-.692-2.295-1.245-9.207-.1-2.96.49-5.815,1.125-6.851,1.361a8.947,8.947,0,0,0-.958-.653l-1.281,1.207a6.7,6.7,0,0,1,1.46.969.835.835,0,0,0,.757.2c.034-.008,3.446-.817,7.042-1.416a37.661,37.661,0,0,1,6.178-.653.893.893,0,0,0-.1.084.836.836,0,0,0-.248.751l.966,5.487a.831.831,0,0,0,.146.344l1.1,1.519h-22.485c.24-.8.6-1.955,1.033-3.135l.127-.346-2.59,2.443c-.127.408-.233.763-.313,1.038h-.095a.836.836,0,0,0-.832.748l-.6,5.795a.836.836,0,0,0,.832.922h.552l.141,3.9-3.283.009h-9.564l-1.771,1.67h11.338l4.013-.011a.843.843,0,0,0,.134.011h5.938v17.75h1.67v-18.616a.837.837,0,0,0-.836-.835h0l-5.964.017-.14-3.9h22.844l-.1,3.188-7.006.695a.834.834,0,0,0-.752.831v1.024a1.661,1.661,0,0,0,0,1.136v16.457h1.67v-15.182a32.756,32.756,0,0,0,5.779,1.192,96.861,96.861,0,0,0,12.151.7c8.854,0,15.119-.931,17.852-1.938v15.232h1.67v-15.877A.827.827,0,0,0,7091.433,1895.67Zm-54.8-8.617h-.432l.429-4.125h24.481l.6,4.125h-25.08Zm35.454,10.036c-9.488,0-15.944-1.092-17.931-2.013v-.1c1.986-.921,8.443-2.013,17.931-2.013,9.652,0,15.946,1.13,17.809,2.061C7088.029,1895.959,7081.735,1897.089,7072.083,1897.089Z" transform="translate(-7008.944 -1871.403)"/></g><path class="d" d="M6691.924,1581.484h-.05a1.673,1.673,0,0,1-1.166-.524l-14.63-15.519a1.669,1.669,0,0,1,.069-2.361l72.814-68.65a1.671,1.671,0,0,1,2.361.069l14.632,15.519a1.67,1.67,0,0,1-.07,2.361l-72.814,68.65A1.669,1.669,0,0,1,6691.924,1581.484Zm-12.271-17.12,12.341,13.089,70.385-66.358-12.34-13.089Z" transform="translate(-6675.623 -1493.975)"/><path class="d" d="M6956.023,2271.208h-87.386a1.67,1.67,0,0,1-1.67-1.67v-46.332a1.67,1.67,0,0,1,1.67-1.67h87.386a1.67,1.67,0,0,1,1.67,1.67v46.332A1.67,1.67,0,0,1,6956.023,2271.208Zm-85.716-3.34h84.046v-42.991h-84.046Z" transform="translate(-6845.665 -2140.536)"/><g transform="translate(52.5 91.023)"><path class="d" d="M7147.383,2454.159l-.194-.337h0Z" transform="translate(-7147.188 -2437.984)"/><path class="d" d="M7175.518,2326.035l8.48-14.469h-8.929l-4.086,6.752Z" transform="translate(-7168.334 -2311.566)"/><path class="d" d="M7175.518,2473.967l8.48,14.469h-8.929l-4.086-6.752Z" transform="translate(-7168.334 -2455.886)"/></g><g transform="translate(23.637 84.34)"><path class="d" d="M6887.937,2297.458h7.842l13.489-22.957-13.489-22.957h-7.842l13.253,22.957Z" transform="translate(-6887.937 -2251.544)"/></g><g transform="translate(35.719 84.34)"><path class="d" d="M6996.463,2297.458h7.84l13.489-22.957-13.489-22.957h-7.84l13.25,22.957Z" transform="translate(-6996.463 -2251.544)"/></g><g transform="translate(21.19 82.929)"><g class="e" transform="translate(0 0)"><path class="d" d="M6756.2,2039.423l-33.329-18.469a11.825,11.825,0,0,0-11.372,0l-33.33,18.469a10.874,10.874,0,0,0-5.686,9.453v36.938a10.875,10.875,0,0,0,5.686,9.453l33.33,18.469a11.812,11.812,0,0,0,11.372,0l33.329-18.47a10.874,10.874,0,0,0,5.687-9.453v-36.938A10.875,10.875,0,0,0,6756.2,2039.423Zm-35.493-14.871,33.329,18.469a6.735,6.735,0,0,1,3.523,5.856v36.938a6.733,6.733,0,0,1-3.523,5.855l-33.329,18.469a7.322,7.322,0,0,1-7.045,0l-33.328-18.469a6.735,6.735,0,0,1-3.523-5.855v-36.938a6.735,6.735,0,0,1,3.523-5.855l33.328-18.47A7.451,7.451,0,0,1,6720.712,2024.552Z" transform="translate(-6694.027 -2043.92)"/></g></g></g></g></svg>