<svg xmlns="http://www.w3.org/2000/svg" xmlns:xlink="http://www.w3.org/1999/xlink" width="208" height="208" viewBox="0 0 208 208"><defs><style>.a{fill:#f9f9f9;}.b{fill:#e4ca7f;}.c{fill:#15110e;}.d{filter:url(#a);}</style><filter id="a" x="0" y="0" width="208" height="208" filterUnits="userSpaceOnUse"><feOffset dy="3" input="SourceAlpha"/><feGaussianBlur stdDeviation="3" result="b"/><feFlood flood-opacity="0.161"/><feComposite operator="in" in2="b"/><feComposite in="SourceGraphic"/></filter></defs><g transform="translate(-39 18)"><g class="d" transform="matrix(1, 0, 0, 1, 39, -18)"><circle class="a" cx="95" cy="95" r="95" transform="translate(9 6)"/></g><g transform="translate(-9378.468 -1568.753)"><path class="b" d="M9531.423,1684.181c0-.25,0-.5.013-.748h-60.326a3.972,3.972,0,0,1-3.968-3.967v-53.783h95v35.295a23.923,23.923,0,0,1,3.548,1.32v-53a7.525,7.525,0,0,0-7.516-7.516h-13.644v-5.138a1.775,1.775,0,0,0-1.774-1.774h-8.236a1.775,1.775,0,0,0-1.774,1.774v5.138h-4.291v-5.138a1.774,1.774,0,0,0-1.774-1.774h-8.236a1.775,1.775,0,0,0-1.774,1.774v5.138h-4.291v-5.138a1.774,1.774,0,0,0-1.773-1.774h-8.237a1.774,1.774,0,0,0-1.773,1.774v5.138h-4.054v-5.138a1.774,1.774,0,0,0-1.773-1.774h-8.236a1.774,1.774,0,0,0-1.774,1.774v5.138h-13.644a7.525,7.525,0,0,0-7.517,7.516v13.992a1.755,1.755,0,0,0,0,1.23v54.942a7.525,7.525,0,0,0,7.517,7.516h60.477A24.107,24.107,0,0,1,9531.423,1684.181Zm4.868-80.621v-5.138h4.688v10.747h-4.687Zm-16.076,0v-5.138h4.688v10.747h-4.687Zm-16.076,0v-5.138h4.688v10.747h-4.688Zm-15.838,0v-5.138h4.688v10.747H9488.3Zm-21.159,5.742a3.972,3.972,0,0,1,3.968-3.968h13.644v5.609a1.774,1.774,0,0,0,1.774,1.774h8.236a1.774,1.774,0,0,0,1.773-1.774v-5.609h4.054v5.609a1.774,1.774,0,0,0,1.773,1.774h8.237a1.774,1.774,0,0,0,1.773-1.774v-5.609h4.291v5.609a1.775,1.775,0,0,0,1.774,1.774h8.236a1.774,1.774,0,0,0,1.774-1.774v-5.609h4.291v5.609a1.775,1.775,0,0,0,1.774,1.774h8.236a1.775,1.775,0,0,0,1.774-1.774v-5.609h13.644a3.972,3.972,0,0,1,3.968,3.968v12.833h-95Z"/><g transform="translate(9476.455 1633.047)"><path class="b" d="M9588.258,2293.3H9599.7a1.774,1.774,0,0,0,1.773-1.774v-8.539a1.774,1.774,0,0,0-1.773-1.774h-11.437a1.774,1.774,0,0,0-1.773,1.774v8.539A1.774,1.774,0,0,0,9588.258,2293.3Zm1.774-8.539h7.889v4.991h-7.889Z" transform="translate(-9586.484 -2246.996)"/><path class="b" d="M9785.764,2293.3H9797.2a1.775,1.775,0,0,0,1.774-1.774v-8.539a1.775,1.775,0,0,0-1.774-1.774h-11.437a1.774,1.774,0,0,0-1.773,1.774v8.539A1.774,1.774,0,0,0,9785.764,2293.3Zm1.774-8.539h7.889v4.991h-7.889Z" transform="translate(-9763.159 -2246.996)"/><path class="b" d="M9977.1,2293.3h11.438a1.774,1.774,0,0,0,1.773-1.774v-8.539a1.774,1.774,0,0,0-1.773-1.774H9977.1a1.775,1.775,0,0,0-1.774,1.774v8.539A1.775,1.775,0,0,0,9977.1,2293.3Zm1.774-8.539h7.889v4.991h-7.889Z" transform="translate(-9934.313 -2246.996)"/><path class="b" d="M9588.258,2131.1H9599.7a1.774,1.774,0,0,0,1.773-1.774v-8.539a1.774,1.774,0,0,0-1.773-1.774h-11.437a1.774,1.774,0,0,0-1.773,1.774v8.539A1.774,1.774,0,0,0,9588.258,2131.1Zm1.774-8.539h7.889v4.991h-7.889Z" transform="translate(-9586.484 -2101.9)"/><path class="b" d="M9785.764,2131.1H9797.2a1.775,1.775,0,0,0,1.774-1.774v-8.539a1.775,1.775,0,0,0-1.774-1.774h-11.437a1.774,1.774,0,0,0-1.773,1.774v8.539A1.774,1.774,0,0,0,9785.764,2131.1Zm1.774-8.539h7.889v4.991h-7.889Z" transform="translate(-9763.159 -2101.9)"/><path class="b" d="M9977.1,2131.1h11.438a1.774,1.774,0,0,0,1.773-1.774v-8.539a1.774,1.774,0,0,0-1.773-1.774H9977.1a1.775,1.775,0,0,0-1.774,1.774v8.539A1.775,1.775,0,0,0,9977.1,2131.1Zm1.774-8.539h7.889v4.991h-7.889Z" transform="translate(-9934.313 -2101.9)"/><path class="b" d="M10166.318,2131.1l11.438-1.16a1.774,1.774,0,0,0,1.773-1.774v-7.379a1.774,1.774,0,0,0-1.773-1.774h-11.437a1.774,1.774,0,0,0-1.773,1.774v8.539A1.774,1.774,0,0,0,10166.318,2131.1Zm1.774-8.539h7.889v4.991h-7.889Z" transform="translate(-10103.576 -2101.9)"/><path class="b" d="M9588.258,1968.894H9599.7a1.774,1.774,0,0,0,1.773-1.774v-8.539a1.774,1.774,0,0,0-1.773-1.774h-11.437a1.774,1.774,0,0,0-1.773,1.774v8.539A1.774,1.774,0,0,0,9588.258,1968.894Zm1.774-8.539h7.889v4.991h-7.889Z" transform="translate(-9586.484 -1956.806)"/><path class="b" d="M9785.764,1968.894H9797.2a1.775,1.775,0,0,0,1.774-1.774v-8.539a1.775,1.775,0,0,0-1.774-1.774h-11.437a1.774,1.774,0,0,0-1.773,1.774v8.539A1.774,1.774,0,0,0,9785.764,1968.894Zm1.774-8.539h7.889v4.991h-7.889Z" transform="translate(-9763.159 -1956.806)"/><path class="b" d="M9977.1,1968.894h11.438a1.774,1.774,0,0,0,1.773-1.774v-8.539a1.774,1.774,0,0,0-1.773-1.774H9977.1a1.775,1.775,0,0,0-1.774,1.774v8.539A1.775,1.775,0,0,0,9977.1,1968.894Zm1.774-8.539h7.889v4.991h-7.889Z" transform="translate(-9934.313 -1956.806)"/><path class="b" d="M10166.318,1968.894h11.438a1.774,1.774,0,0,0,1.773-1.774v-8.539a1.774,1.774,0,0,0-1.773-1.774h-11.437a1.774,1.774,0,0,0-1.773,1.774v8.539A1.774,1.774,0,0,0,10166.318,1968.894Zm1.774-8.539h7.889v4.991h-7.889Z" transform="translate(-10103.576 -1956.806)"/></g><g transform="translate(9530.632 1658.984)"><path class="c" d="M10125.059,2252.532a24.907,24.907,0,1,1,17.613-7.3A24.748,24.748,0,0,1,10125.059,2252.532Zm0-48.235a23.326,23.326,0,1,0,23.326,23.326A23.353,23.353,0,0,0,10125.059,2204.3Z" transform="translate(-10100.15 -2202.715)"/></g><g transform="translate(9537.263 1668.895)"><path class="c" d="M10188.972,2300.2l.791-1.37a16,16,0,0,0-18.111,1.454l-.027.022-.112.092-.046.039a15.962,15.962,0,0,0-5.717,11.426l-1.4-2.169-1.329.858,3.224,4.994,4.327-4.2-1.1-1.135-2.153,2.093a14.386,14.386,0,0,1,5.168-10.65l.042-.036.1-.078.029-.024A14.5,14.5,0,0,1,10188.972,2300.2Z" transform="translate(-10163.02 -2296.686)"/><path class="c" d="M10282.788,2407.233l-3.224-4.994-4.327,4.2,1.1,1.134,2.154-2.092a14.4,14.4,0,0,1-5.169,10.65l-.042.036-.1.078-.029.024a14.5,14.5,0,0,1-16.322,1.312l-.791,1.37a15.9,15.9,0,0,0,7.975,2.146q.712,0,1.428-.063a15.966,15.966,0,0,0,8.709-3.537l.027-.022.111-.091.047-.04a15.962,15.962,0,0,0,5.717-11.426l1.4,2.169Z" transform="translate(-10246.233 -2391.106)"/></g><g transform="translate(9571.287 1683.042)"><path class="b" d="M10485.613,2430.849l.035-.035.022.035Z" transform="translate(-10485.613 -2430.814)"/></g></g></g></svg>