<svg xmlns="http://www.w3.org/2000/svg" xmlns:xlink="http://www.w3.org/1999/xlink" width="103.396" height="46.587" viewBox="0 0 103.396 46.587"><defs><style>.a{fill:url(#a);}.b{fill:#fff;}.c{fill:url(#b);}.d{fill:url(#c);}.e{fill:url(#d);}.f{fill:url(#e);}.g{fill:url(#f);}</style><linearGradient id="a" x1="0.278" y1="0.915" x2="0.722" y2="0.085" gradientUnits="objectBoundingBox"><stop offset="0" stop-color="#ab8c4a"/><stop offset="1" stop-color="#dbb15d"/></linearGradient><linearGradient id="b" x1="-133.141" y1="-11.367" x2="1.177" y2="0.56" xlink:href="#a"/><linearGradient id="c" x1="-2.977" y1="-0.005" x2="-0.345" y2="0.359" xlink:href="#a"/><linearGradient id="d" x1="-2.977" y1="15.301" x2="-0.345" y2="15.665" xlink:href="#a"/><linearGradient id="e" x1="-0.057" y1="0.483" x2="1.21" y2="0.573" xlink:href="#a"/><linearGradient id="f" x1="-0.629" y1="0.442" x2="0.638" y2="0.532" xlink:href="#a"/></defs><g transform="translate(-363.644 -223.048)"><path class="a" d="M509.633,237.16a5.3,5.3,0,0,0-2.678-4.551l-15.677-8.878a5.3,5.3,0,0,0-5.28.044l-15.527,9.137a5.3,5.3,0,0,0-2.6,4.6l.012,1.429,1.941-.016-.012-1.429a3.35,3.35,0,0,1,1.646-2.907l15.526-9.137a3.345,3.345,0,0,1,1.666-.46,3.435,3.435,0,0,1,1.674.432L506,234.3a3.35,3.35,0,0,1,1.695,2.879l.15,18.014A3.351,3.351,0,0,1,506.2,258.1l-15.527,9.137a3.348,3.348,0,0,1-3.34.028l-15.676-8.877a3.351,3.351,0,0,1-1.694-2.879l-.012-1.429-1.94.016.012,1.429a5.3,5.3,0,0,0,2.678,4.552l15.676,8.877a5.287,5.287,0,0,0,2.6.684h.044a5.285,5.285,0,0,0,2.635-.727l15.527-9.137a5.3,5.3,0,0,0,2.6-4.6Z" transform="translate(-42.742 0)"/><g transform="translate(363.644 241.095)"><path class="b" d="M368.9,253.642c1.207,0,3.89.468,3.89,2.371v1.334h-2.272v-.553c0-.582-.908-.809-1.561-.809a2.561,2.561,0,0,0-2.669,2.8,2.889,2.889,0,0,0,2.726,3.01,4.135,4.135,0,0,0,2.9-1.292l1.292,1.817a5.83,5.83,0,0,1-4.231,1.818,5.246,5.246,0,1,1-.071-10.492Z" transform="translate(-363.644 -253.642)"/><path class="b" d="M380.637,261.952h.27c.227,0,.3-.071.383-.312l2.768-7.709H386.7l2.768,7.709c.086.241.156.312.383.312h.27v2.13h-1.633a1.031,1.031,0,0,1-1.193-.824l-.44-1.306H383.9l-.44,1.306a1.031,1.031,0,0,1-1.193.824h-1.633Zm5.679-2.059-.511-1.689c-.2-.639-.412-1.675-.412-1.675h-.028s-.213,1.036-.412,1.675l-.511,1.689Z" transform="translate(-370.613 -253.761)"/><path class="b" d="M398.552,256.061h-.923v-2.13h6.1c.724,0,1.037.312,1.037,1.036v1.96H402.5v-.554a.284.284,0,0,0-.313-.312h-1.093v2.13h2.9v2.13h-2.9v3.762h-2.541Z" transform="translate(-377.581 -253.761)"/><path class="b" d="M411.742,256.061h-.923v-2.13h6.1c.724,0,1.036.312,1.036,1.036v1.96h-2.272v-.554a.284.284,0,0,0-.313-.312h-1.093v2.13h2.9v2.13h-2.9v3.762h-2.541Z" transform="translate(-382.99 -253.761)"/><path class="b" d="M424.931,256.061h-.923v-2.13H430.4c.724,0,1.037.312,1.037,1.036v1.96h-2.272v-.554a.284.284,0,0,0-.312-.312h-1.377v1.846h2.9v2.13h-2.9v1.6a.284.284,0,0,0,.313.312h1.405a.284.284,0,0,0,.313-.312v-.554h2.271v1.959c0,.724-.312,1.036-1.036,1.036h-4.771c-.724,0-1.036-.313-1.036-1.036Z" transform="translate(-388.399 -253.761)"/><path class="b" d="M438.377,261.952h1.065v-5.892h-1.065v-2.13h4.529v2.13h-1.065v5.892h1.065v2.13h-4.529Z" transform="translate(-394.292 -253.761)"/><path class="b" d="M447.475,261.952h.611a.284.284,0,0,0,.313-.312v-7.709h2.286l2.811,4.359a17.24,17.24,0,0,1,.852,1.519h.028a14.693,14.693,0,0,1-.113-1.519v-3.323c0-.724.312-1.036,1.036-1.036h2.427v2.13h-.61a.284.284,0,0,0-.313.312v7.709h-2.272l-2.825-4.345a15.343,15.343,0,0,1-.852-1.519h-.028a14.693,14.693,0,0,1,.113,1.519v3.308c0,.724-.313,1.036-1.036,1.036h-2.428Z" transform="translate(-398.023 -253.761)"/><path class="b" d="M467.124,256.061H466.2v-2.13h6.389c.724,0,1.037.312,1.037,1.036v1.96h-2.272v-.554a.284.284,0,0,0-.313-.312h-1.377v1.846h2.9v2.13h-2.9v1.6a.284.284,0,0,0,.313.312h1.405a.284.284,0,0,0,.313-.312v-.554h2.272v1.959c0,.724-.313,1.036-1.036,1.036H468.16c-.724,0-1.036-.313-1.036-1.036Z" transform="translate(-405.703 -253.761)"/></g><g transform="translate(449.806 238.723)"><path class="c" d="M509.8,262.345l-.091-.158h0Z" transform="translate(-509.706 -254.774)"/><path class="d" d="M513.93,256.393l3.97-6.773h-4.18l-1.913,3.161Z" transform="translate(-510.568 -249.62)"/><path class="e" d="M513.93,263.967l3.97,6.773h-4.18l-1.913-3.161Z" transform="translate(-510.568 -255.504)"/></g><g transform="translate(436.295 235.595)"><path class="f" d="M486.8,265.81h3.67l6.315-10.746-6.315-10.746H486.8l6.2,10.746Z" transform="translate(-486.802 -244.317)"/></g><g transform="translate(441.951 235.595)"><path class="g" d="M496.39,265.81h3.67l6.315-10.746-6.315-10.746h-3.67l6.2,10.746Z" transform="translate(-496.39 -244.317)"/></g></g></svg>