<svg xmlns="http://www.w3.org/2000/svg" width="20.916" height="16.965" viewBox="0 0 20.916 16.965"><defs><style>.a{fill:#060303;fill-rule:evenodd;}</style></defs><path class="a" d="M44.623,18.965a12.092,12.092,0,0,0,12.2-12.2V6.183a9.445,9.445,0,0,0,2.092-2.208,9.646,9.646,0,0,1-2.44.7,4.521,4.521,0,0,0,1.859-2.324,10.658,10.658,0,0,1-2.673,1.046A4.15,4.15,0,0,0,52.525,2a4.366,4.366,0,0,0-4.3,4.3,2.265,2.265,0,0,0,.116.93A12.013,12.013,0,0,1,39.511,2.7,4.45,4.45,0,0,0,38.93,4.9a4.617,4.617,0,0,0,1.859,3.6,3.917,3.917,0,0,1-1.975-.581h0A4.247,4.247,0,0,0,42.3,12.109a3.582,3.582,0,0,1-1.162.116,1.977,1.977,0,0,1-.813-.116,4.4,4.4,0,0,0,4.067,3.021,8.773,8.773,0,0,1-5.345,1.859A3.217,3.217,0,0,1,38,16.873a10.968,10.968,0,0,0,6.623,2.092" transform="translate(-38 -2)"/></svg>