<svg xmlns="http://www.w3.org/2000/svg" width="28.431" height="19.546" viewBox="0 0 28.431 19.546"><defs><style>.a{fill:#060303;}</style></defs><path class="a" d="M27.222,81.884c-.771-1.372-1.608-1.624-3.312-1.72-1.7-.116-5.983-.163-9.691-.163s-8,.048-9.7.162c-1.7.1-2.539.348-3.317,1.722C.409,83.254,0,85.613,0,89.768v.014c0,4.137.409,6.514,1.2,7.87.778,1.372,1.615,1.621,3.316,1.736,1.7.1,5.985.158,9.7.158s7.989-.059,9.693-.156c1.7-.116,2.541-.364,3.312-1.736.8-1.356,1.207-3.733,1.207-7.87v-.014C28.431,85.613,28.026,83.254,27.222,81.884ZM10.661,95.1V84.442l8.885,5.331Z" transform="translate(0 -80)"/></svg>